<?xml version="1.0" encoding="UTF-8" standalone="no"?> <!-- Created with Vectornator Pro for iOS (http://vectornator.io/) --><!DOCTYPE svg PUBLIC "-//W3C//DTD SVG 1.1//EN" "http://www.w3.org/Graphics/SVG/1.1/DTD/svg11.dtd">
<svg height="100%" style="fill-rule:evenodd;clip-rule:evenodd;stroke-linecap:round;stroke-linejoin:round;" xmlns:xlink="http://www.w3.org/1999/xlink" xmlns="http://www.w3.org/2000/svg" xml:space="preserve" width="100%" xmlns:vectornator="http://vectornator.io" version="1.1" viewBox="470.62 25.3572 1010.79 1010.98">
<g id="Layer" vectornator:layerName="Layer">
<path stroke="#ba2b9b" stroke-width="1" d="M1246.5+701L1254.5+701C1311.11+701+1357+746.891+1357+803.5L1357+803.5C1357+860.109+1311.11+906+1254.5+906L1246.5+906C1189.89+906+1144+860.109+1144+803.5L1144+803.5C1144+746.891+1189.89+701+1246.5+701Z" fill="#ba2b9b" stroke-linecap="butt" opacity="1" stroke-linejoin="round"/>
<path stroke="#ba2b9b" stroke-width="1" d="M831.931+108.471C837.963+96.4061+812.517+97.6775+806.931+100.471C776.375+115.749+754.572+157.022+778.931+187.471C791.063+202.636+804.816+203.581+821.931+208.471C859.097+219.09+887.369+214.293+912.931+184.471C919.481+176.829+926.272+169.229+929.931+159.471C935.704+144.077+932.232+135.526+927.931+120.471C920.459+94.3176+902.205+71.1257+873.931+65.4708C866.142+63.913+856.241+60.3933+847.931+62.4708C828.187+67.4067+833.066+87.6247+827.931+94.4708C825.276+98.0111+817.379+105.359+812.931+106.471C811.693+106.78+803.274+107.098+802.931+108.471C802.675+109.493+803.598+110.471+803.931+111.471" fill="#ba2b9b" stroke-linecap="butt" opacity="1" stroke-linejoin="round"/>
<path stroke="#000000" stroke-opacity="0" stroke-width="1" d="M832.297+620.715C831.098+624.593+828.931+629.519+825.801+632.414C825.041+633.117+824.737+634.148+824.091+634.944C822.154+637.332+818.82+640.543+815.886+641.9C813.036+643.218+809.443+644.388+806.998+646.327C805.188+647.761+803.386+649.327+801.186+650.437C798.901+651.59+796.237+651.654+794.006+652.967C791.816+654.256+789.832+655.868+787.853+657.394C784.043+660.329+780.313+662.795+777.596+666.563C776.23+668.458+774.691+669.881+774.177+672.255C773.805+673.976+773.927+676.934+774.519+678.579C775.053+680.061+776.444+681.061+777.254+682.373C778.516+684.414+780.276+686.432+782.041+688.064C782.728+688.7+783.94+688.943+784.776+689.329C787.665+690.665+790.538+692.297+793.664+693.124C795.71+693.664+798.034+693.744+800.16+694.072C801.623+694.298+803.133+694.851+804.604+695.021C805.396+695.112+806.215+694.876+806.998+695.021C812.256+695.993+817.274+695.063+822.382+694.388C828.956+693.52+834.959+691.418+840.843+688.697C841.586+688.354+842.495+688.408+843.237+688.064C847.712+685.995+852.284+683.71+856.228+680.792C858.665+678.989+860.074+676.589+862.04+674.468C862.307+674.18+862.798+674.124+863.065+673.836C864.998+671.75+866.072+668.842+868.194+666.879C869.694+665.492+871.12+663.856+872.638+662.453C873.974+661.217+875.495+660.014+876.399+658.342C877.212+656.838+877.543+655.168+878.108+653.599C878.951+651.261+880.793+649.333+881.527+646.959C882.024+645.349+882.086+643.396+882.894+641.9C883.716+640.379+884.935+639.079+885.629+637.473C886.259+636.017+886.447+634.271+886.655+632.73C887.383+627.342+886.025+621.788+883.92+616.92C883.323+615.54+881.557+614.185+881.185+612.81C880.788+611.341+880.147+610.574+879.476+609.332C878.677+607.855+878.563+605.993+877.424+604.589C876.12+602.98+874.681+601.417+873.322+599.846C867.721+593.371+860.883+586.984+851.784+585.301C849.414+584.863+846.185+585.514+843.92+585.933C841.84+586.318+839.48+587.907+837.767+589.095C836.32+590.098+836.104+591.452+835.715+592.89C835.534+593.559+834.871+594.117+834.69+594.787C834.193+596.625+835.599+598.784+836.057+600.478C836.284+601.318+836.959+603.465+837.083+603.008C837.356+601.996+835.957+606.226+835.715+607.118C835.394+608.309+836.037+609.722+835.715+610.913C835.592+611.37+835.155+611.72+835.032+612.178C834.763+613.17+835.3+614.348+835.032+615.34C834.731+616.451+834.237+617.441+833.664+618.501" fill="#2bb4ba" stroke-linecap="butt" opacity="1" stroke-linejoin="round"/>
<path stroke="#000000" stroke-opacity="0" stroke-width="1" d="M643.922+437.954C645.902+431.85+649.632+426.033+654.52+421.512C661.901+414.685+671.623+409.544+681.529+406.65C688.38+404.65+695.958+404.437+703.067+404.437C707.985+404.437+713.629+403.74+718.451+404.753C723.527+405.82+728.516+407.985+733.152+410.129C738.216+412.47+743.659+415.064+747.853+418.666C751.748+422.011+754.839+425.987+757.767+430.049C758.311+430.803+759.038+431.451+759.477+432.262C760.273+433.735+760.583+435.759+761.186+437.321C763.923+444.409+764.263+451.651+764.263+459.139C764.263+466.517+764.263+473.895+764.263+481.273C764.263+487.803+763.028+495.382+765.972+501.509C769.798+509.471+777.004+516.213+783.75+522.062C788.641+526.303+793.109+531.235+797.425+535.974C801.746+540.72+805.362+545.809+808.707+551.152C811.575+555.733+814.639+560.005+816.57+565.064C818.423+569.919+818.621+575.16+818.621+580.242C818.621+584.859+819.262+589.929+818.28+594.471C816.949+600.625+814.482+606.871+811.442+612.494C806.658+621.343+800.067+629.185+792.297+635.892C786.046+641.288+779.251+644.234+771.442+647.275C762.176+650.884+751.681+651.386+741.699+651.386C737.166+651.386+732.675+651.715+728.366+650.121C720.213+647.105+712.922+642.172+706.144+637.157C701.517+633.734+696.751+630.46+692.127+627.039C686.587+622.94+681.598+618.174+676.059+614.075C665.764+606.458+653.632+601.153+641.187+597.316C632.342+594.589+622.83+593.398+613.495+592.89C604.443+592.397+595.163+593.724+586.145+592.89C577.586+592.098+570.693+586.875+563.923+582.455C549.239+572.869+537.792+558.269+536.573+541.35C536.297+537.526+535.851+532.621+538.282+529.334C543.599+522.148+553.449+521.746+561.872+521.746C563.809+521.746+565.773+521.451+567.684+521.746C569.923+522.091+572.036+522.949+574.179+523.643C577.724+524.79+581.026+526.334+584.436+527.753C593.514+531.532+603.124+534.243+612.128+538.188C629.903+545.975+649.65+561.301+673.324+570.756C703.409+582.771+717.768+596.368+738.622+586.566C755.12+578.812+756.513+548.375+756.058+547.041C755.705+546.007+745.027+519.022+732.468+509.73C725.631+504.671+725.973+508.782+709.221+499.928C696.675+493.298+690.079+478.72+675.717+474.633C669.337+472.817+662.772+473.484+656.23+473.052C653.84+472.894+651.684+471.96+649.392+471.471C646.724+470.901+640.504+468.625+637.768+456.609C636.545+451.234+641.642+444.982+643.922+437.954Z" fill="#2bb4ba" stroke-linecap="butt" opacity="1" stroke-linejoin="round"/>
<path stroke="#2bb4ba" stroke-width="1" d="M1163.52+203.434C1166.2+206.108+1161+207.007+1158.9+208.059C1151.97+211.525+1146.58+212.36+1140.4+217.309C1137.24+219.837+1135.44+223.048+1132.3+225.403C1130.24+226.95+1127.16+228.23+1125.37+230.028C1123.11+232.284+1122.32+237.457+1119.58+239.278C1117.64+240.577+1112.78+240.435+1110.33+240.435C1101.51+240.435+1095.29+237.881+1088.37+232.341C1075.34+221.921+1061.7+206.101+1065.24+188.403C1066.01+184.562+1074.38+179.427+1077.96+177.996C1082.96+175.996+1088.14+175.31+1092.99+173.371C1101.78+169.855+1110.8+165.104+1120.74+167.59C1134.41+171.006+1141.63+180.025+1149.65+190.715C1152.5+194.522+1156.92+195.676+1160.05+198.809C1161.42+200.172+1162.16+202.071+1163.52+203.434Z" fill="#2bb4ba" stroke-linecap="butt" opacity="1" stroke-linejoin="round"/>
<path stroke="#000000" stroke-opacity="0" stroke-width="1" d="M843.798+601.739C843.812+602.137+843.736+601.979+843.961+602.236" fill="#2bb4ba" stroke-linecap="butt" opacity="1" stroke-linejoin="round"/>
<path stroke="#ba2b9b" stroke-width="1" d="M1246.5+701L1254.5+701C1311.11+701+1357+746.891+1357+803.5L1357+803.5C1357+860.109+1311.11+906+1254.5+906L1246.5+906C1189.89+906+1144+860.109+1144+803.5L1144+803.5C1144+746.891+1189.89+701+1246.5+701Z" fill="#ba2b9b" stroke-linecap="butt" opacity="1" stroke-linejoin="round"/>
<path stroke="#ba2b9b" stroke-width="1" d="M1246.5+701L1254.5+701C1311.11+701+1357+746.891+1357+803.5L1357+803.5C1357+860.109+1311.11+906+1254.5+906L1246.5+906C1189.89+906+1144+860.109+1144+803.5L1144+803.5C1144+746.891+1189.89+701+1246.5+701Z" fill="#ba2b9b" stroke-linecap="butt" opacity="1" stroke-linejoin="round"/>
<path stroke="#ba2b9b" stroke-width="1" d="M1246.5+701L1254.5+701C1311.11+701+1357+746.891+1357+803.5L1357+803.5C1357+860.109+1311.11+906+1254.5+906L1246.5+906C1189.89+906+1144+860.109+1144+803.5L1144+803.5C1144+746.891+1189.89+701+1246.5+701Z" fill="#ba2b9b" stroke-linecap="butt" opacity="1" stroke-linejoin="round"/>
<path stroke="#2bb4ba" stroke-width="1" d="M1211.5+627.5C1213.54+629.169+1219.44+629.639+1222+629C1228.86+627.286+1230.37+637.183+1236+640C1257.18+650.59+1275+663.96+1275+690C1275+702.514+1261.1+717.904+1253+726C1247.14+731.857+1242.83+739.169+1237+745C1227.8+754.197+1213.39+756.612+1204+766C1190.87+779.131+1177.42+818.837+1186+836C1188.42+840.847+1192.39+847.934+1196+852C1218.89+877.752+1258.27+850.091+1283+847C1311.3+843.463+1375.18+851.211+1400+865C1416.11+873.949+1431.15+886.247+1441+902C1456.83+927.32+1454.78+970.526+1436+994C1427.84+1004.2+1413.67+1014.16+1402+1020C1388.41+1026.8+1371.17+1030.38+1356+1029C1349.4+1028.4+1342.86+1026.09+1336+1027C1326.87+1028.22+1318.53+1031.36+1309+1030C1305.02+1029.43+1302.11+1026.46+1298+1026C1287.46+1024.83+1276.54+1027.17+1266+1026C1221.18+1021.02+1187.38+1022.23+1147+998C1120.25+981.947+1104.82+967.281+1097+936C1094.89+927.578+1101.59+922.884+1106+917C1113.97+906.375+1124+893.976+1124+880C1124+873.593+1124.24+867.194+1123+861C1120.94+850.709+1106.29+841.338+1100+834C1087.82+819.787+1073.88+792.95+1082+774C1085.05+766.884+1090.98+759.852+1096+754C1108.44+739.488+1143.26+728.361+1149+714C1154.02+701.461+1144.98+688.061+1148+676C1149.48+670.083+1156.73+661.266+1161+657C1169.21+648.79+1183.41+640+1195+640C1200.37+640+1206+623+1211.5+627.5Z" fill="#2bb4ba" stroke-linecap="butt" opacity="1" stroke-linejoin="round"/>
<path stroke="#000000" stroke-opacity="0" stroke-width="1" d="M840.2+596.867C840.223+596.841+840.247+596.816+840.27+596.791" fill="#2bb4ba" stroke-linecap="butt" opacity="1" stroke-linejoin="round"/>
<path stroke="#2bb4ba" stroke-width="1" d="M651.696+148.821C646.967+152.609+649.058+149.587+645.901+153.959C643.092+157.85+639.847+158.312+640.399+167.365C640.951+176.418+655.39+171.552+652.931+176.471C646.852+188.629+633.2+218.277+637.931+232.471C647.48+261.118+662.887+250.426+675.931+263.471C687.519+275.058+684.165+294.024+666.931+297.471C650.224+300.812+627.827+290.809+613.931+282.471C574.825+259.007+561.435+241.454+572.931+195.471C574.258+190.162+575.042+182.285+577.931+177.471C583.741+167.787+607.919+145.474+619.931+142.471C628.885+140.232+638.983+142.708+647.931+140.471C654.172+138.911+665.405+137.839+671.931+139.471C674.823+140.194+684.467+147.935+681.931+150.471C681.048+151.353+677.892+165.344+667.258+160.058C656.625+154.772+673.476+153.299+668.135+145.044C666.027+141.787+663.041+145.503+661.751+145.237C655.58+143.965+654.658+146.448+651.696+148.821Z" fill="#2bb4ba" stroke-linecap="butt" opacity="1" stroke-linejoin="round"/>
<path stroke="#2bb4ba" stroke-width="1" d="M714.431+42.4708C725.635+25.4051+732.423+33.305+739.931+32.4708C760.81+30.1508+789.221+48.342+795.931+68.4708C806.199+99.2735+786.282+113.665+782.931+140.471C781.961+148.228+778.599+164.972+785.931+170.471C795.01+177.28+811.816+174.157+821.931+172.471C838.493+169.71+857.64+165.045+871.931+156.471C885.745+148.182+895.02+135.03+912.931+132.471C932.202+129.718+950.374+145.626+963.931+156.471C973.721+164.303+979.832+174.492+985.931+185.471C994.106+200.186+997.289+216.051+998.931+232.471C1001.08+253.982+986.427+270.726+972.931+286.471C961.941+299.292+947.641+312.447+932.931+320.471C916.671+329.34+892.502+323.153+875.931+319.471C811.376+305.125+777.547+290.885+727.931+247.471C716.063+237.086+689.472+227.552+682.931+214.471C666.69+181.988+712.225+170.501+703.931+141.471C696.243+114.563+644.877+121.632+656.931+85.4708C662.576+68.5358+677.509+60.4189+690.931+51.4708C695.373+48.5094+694.17+47.0001+699.353+44.4086C701.667+43.2515+713.011+44.6337+714.431+42.4708Z" fill="#2bb4ba" stroke-linecap="butt" opacity="1" stroke-linejoin="round"/>
<path stroke="#ba2b9b" stroke-width="1" d="M507.358+942.051C494.236+921.558+464.744+871.01+541.477+770.936C563.286+742.493+596.938+763.581+616.717+761.593C667.264+756.513+695.148+783.203+705.762+797.107C720.529+816.452+714.552+925.425+684.52+947.25C654.489+969.076+538.41+990.545+507.358+942.051Z" fill="#ba2b9b" stroke-linecap="butt" opacity="1" stroke-linejoin="round"/>
<path stroke="#ba2b9b" stroke-width="1" d="M576.572+545.144C578.306+516.55+588.196+443.645+676.401+444.594C708.497+444.939+762.554+521.88+762.554+550.519C762.554+579.159+705.422+627.671+673.324+627.671C641.225+627.671+572.47+612.81+576.572+545.144Z" fill="#ba2b9b" stroke-linecap="butt" opacity="1" stroke-linejoin="round"/>
<path stroke="#ba2b9b" stroke-width="1" d="M1205.79+468.711C1181.51+467.156+1123.31+461.002+1088.08+339.917C1078.06+305.502+1114.98+290.864+1125.09+273.746C1150.92+230.001+1188.93+223.327+1206.42+223.004C1230.76+222.554+1315.04+291.881+1314.86+329.005C1314.67+366.129+1263.26+472.393+1205.79+468.711Z" fill="#ba2b9b" stroke-linecap="butt" opacity="1" stroke-linejoin="round"/>
<path stroke="#2bb4ba" stroke-width="1" d="M1228.26+265.707C1231.6+268.181+1235+271.504+1238.68+273.352C1244.28+276.163+1251.14+280.361+1256.46+284.178C1261.96+288.119+1266.03+294.18+1271.51+298.103C1274.78+300.453+1286.44+307.482+1291.57+312.485C1291.57+312.485+1302.32+321.674+1307.45+326.486C1326.61+344.437+1345.6+365.169+1357.16+387.928C1359.91+393.349+1368.74+428.384+1367.95+439.968C1367.47+447.129+1356.64+474.738+1351.83+479.511C1345.87+485.42+1324.66+497.34+1321.94+498.551C1312.1+502.932+1286.93+508.375+1284.25+508.51C1276.67+508.894+1268.3+506.409+1260.78+507.21C1253.29+508.007+1245.74+506.565+1238.09+506.817C1228.1+507.147+1217.15+508.887+1206.99+506.495C1193.65+503.356+1180.24+497.162+1167.58+492.025C1153.52+486.325+1138.56+479.597+1126.11+470.671C1117.12+464.231+1109.55+456.547+1101.48+449.177C1095.51+443.733+1087.66+439.376+1082.36+433.208C1071.01+419.992+1060.93+403.364+1058.63+385.849C1055.86+364.76+1075.82+353.563+1093.09+348.813C1108.07+344.694+1130.93+336.021+1140.2+348.918C1167.89+387.431+1127.81+382.943+1158.24+418.357C1163.63+424.638+1185.81+458.609+1219+428.076C1240.53+408.274+1273.52+424.256+1287.24+395.374C1300.58+367.308+1262.01+364.196+1253.61+314.049C1252.58+307.925+1231.26+306.155+1226.4+305.713C1207.53+303.994+1189.8+303.299+1172.39+295.771C1164.35+292.296+1160.52+287.851+1155.72+280.862C1151.83+275.19+1147.01+269.291+1149.43+261.875C1151.2+256.442+1157.88+254.097+1162.7+252.203C1165.19+251.227+1169.23+251.567+1171.23+250.469C1171.77+250.172+1171.64+249.178+1172.18+248.881C1174.41+247.662+1178.17+248.364+1180.66+247.979C1186.76+247.033+1185.79+234.218+1228.26+265.707Z" fill="#2bb4ba" stroke-linecap="butt" opacity="1" stroke-linejoin="round"/>
<path stroke="#2bb4ba" stroke-width="1" d="M1345.5+678.5C1364.67+679.009+1364.74+679.452+1369+683C1381.48+693.402+1390.55+707.248+1397+722C1405.75+741.996+1416.67+745.171+1414.32+777.61C1414.11+780.443+1396.51+802.494+1409+811C1413.26+813.899+1438.17+803.266+1441+801C1502.49+751.811+1476.13+646.712+1405+623C1381.22+615.072+1348.64+620.258+1335+643C1331.77+648.383+1326.79+660.572+1330+667C1332.82+672.638+1330.99+678.115+1345.5+678.5Z" fill="#2bb4ba" stroke-linecap="butt" opacity="1" stroke-linejoin="round"/>
<path stroke="#000000" stroke-opacity="0" stroke-width="1" d="M623.068+406.967C623.939+405.355+623.752+407.839+623.752+408.231C623.752+410.344+623.728+411.251+622.726+413.291C620.337+418.151+616.159+422.526+612.128+426.255C610.997+427.3+610.083+427.742+608.709+428.468C601.99+432.019+614.2+425.689+606.658+430.049C605.253+430.861+602.802+431.733+601.188+431.946C592.977+433.031+585.13+429.242+578.282+425.622C576.277+424.563+575.599+422.541+574.521+420.879C572.124+417.184+570.92+413.04+570.419+408.864C569.91+404.632+568.122+400.563+568.709+396.216C570.206+385.145+576.798+374.163+586.487+367.442C588.829+365.818+590.934+363.822+593.666+362.699C599.19+360.429+605.404+358.515+611.444+357.956C615.772+357.556+621.25+356.974+625.461+358.273C628.699+359.271+633.535+360.365+636.059+362.699C640.108+366.444+641.529+371.033+641.529+376.296C641.529+377.281+641.738+378.494+641.529+379.458C640.754+383.04+638.459+386.085+636.743+389.26C633.714+394.863+630.838+400.671+629.222+406.65C628.988+407.514+628.048+407.887+627.512+408.548C626.558+409.724+625.714+411.139+624.435+412.026C623.2+412.883+621.358+413.123+621.358+414.872" fill="#2bb4ba" stroke-linecap="butt" opacity="1" stroke-linejoin="round"/>
<path stroke="#2bb4ba" stroke-width="1" d="M539.168+802.496C543.31+802.159+548.062+802.413+552.045+801.381C558.107+799.809+566.034+798.448+572.553+797.811C579.286+797.153+586.346+799.027+593.047+798.373C597.061+797.981+610.458+795.592+617.617+795.973C617.617+795.973+631.756+795.804+638.79+796.041C665.025+796.926+692.972+800.008+716.663+809.515C722.305+811.779+752.026+832.321+759.07+841.549C763.426+847.255+773.468+875.16+772.993+881.921C772.405+890.291+764.303+913.231+763.053+915.936C758.534+925.718+743.188+946.393+741.262+948.26C735.808+953.546+727.88+957.186+722.749+962.744C717.641+968.278+711.008+972.17+705.422+977.398C698.119+984.233+691.029+992.755+681.809+997.65C669.712+1004.07+655.543+1008.25+642.629+1012.73C628.3+1017.7+612.612+1022.5+597.364+1023.99C586.363+1025.06+575.604+1024.27+564.672+1024.05C556.596+1023.88+547.822+1025.78+539.77+1024.63C522.522+1022.17+503.985+1016.3+490.716+1004.64C474.738+990.595+482.38+969.02+492.242+954.067C500.793+941.102+512.276+919.518+527.749+923.11C573.956+933.837+540.847+956.868+587.067+963.463C595.265+964.633+634.327+975.581+639.18+930.742C642.328+901.663+616.199+914.471+607.495+883.701C599.036+853.8+629.445+854.353+590.087+822.163C585.28+818.231+568.078+830.946+564.131+833.814C548.8+844.956+535.003+856.115+516.946+861.923C508.61+864.605+502.802+863.783+494.588+861.686C487.921+859.984+480.411+858.72+477.345+851.549C475.098+846.294+478.58+840.128+480.956+835.529C482.181+833.158+485.446+830.751+486.23+828.604C486.443+828.024+485.686+827.365+485.898+826.785C486.769+824.401+490.066+822.447+491.678+820.523C495.645+815.792+486.474+806.789+539.168+802.496Z" fill="#2bb4ba" stroke-linecap="butt" opacity="1" stroke-linejoin="round"/>
<path stroke="#000000" stroke-width="1" d="M590.248+439.219" fill="#ffffff" stroke-linecap="butt" opacity="1" stroke-linejoin="round"/>
</g>
</svg>
